<svg width="1288" height="728" viewBox="0 0 1288 728" fill="none" xmlns="http://www.w3.org/2000/svg">
<g filter="url(#filter0_d_1_2)">
<rect width="1280" height="720" transform="translate(4)" fill="black"/>
<rect x="457" y="465" width="397" height="230" rx="15" fill="#1D1D1D"/>
<rect x="456" y="464" width="399" height="232" rx="16" stroke="#5C5C5C" stroke-opacity="0.5" stroke-width="2"/>
<rect x="32" y="216" width="407" height="479" rx="15" fill="#1D1D1D"/>
<rect x="31" y="215" width="409" height="481" rx="16" stroke="#5C5C5C" stroke-opacity="0.5" stroke-width="2"/>
<rect x="872" y="464" width="397" height="230" rx="15" fill="#1D1D1D"/>
<rect x="871" y="463" width="399" height="232" rx="16" stroke="#5C5C5C" stroke-opacity="0.5" stroke-width="2"/>
<rect x="457" y="216" width="397" height="230" rx="15" fill="#1D1D1D"/>
<rect x="456" y="215" width="399" height="232" rx="16" stroke="#5C5C5C" stroke-opacity="0.5" stroke-width="2"/>
<rect x="32" y="21" width="1234" height="177" rx="15" fill="#1D1D1D"/>
<rect x="31" y="20" width="1236" height="179" rx="16" stroke="#5C5C5C" stroke-opacity="0.5" stroke-width="2"/>
<rect x="872" y="216" width="397" height="230" rx="15" fill="#1D1D1D"/>
<rect x="871" y="215" width="399" height="232" rx="16" stroke="#5C5C5C" stroke-opacity="0.5" stroke-width="2"/>
</g>
<defs>
<filter id="filter0_d_1_2" x="0" y="0" width="1288" height="728" filterUnits="userSpaceOnUse" color-interpolation-filters="sRGB">
<feFlood flood-opacity="0" result="BackgroundImageFix"/>
<feColorMatrix in="SourceAlpha" type="matrix" values="0 0 0 0 0 0 0 0 0 0 0 0 0 0 0 0 0 0 127 0" result="hardAlpha"/>
<feOffset dy="4"/>
<feGaussianBlur stdDeviation="2"/>
<feComposite in2="hardAlpha" operator="out"/>
<feColorMatrix type="matrix" values="0 0 0 0 0 0 0 0 0 0 0 0 0 0 0 0 0 0 0.25 0"/>
<feBlend mode="normal" in2="BackgroundImageFix" result="effect1_dropShadow_1_2"/>
<feBlend mode="normal" in="SourceGraphic" in2="effect1_dropShadow_1_2" result="shape"/>
</filter>
</defs>
</svg>
